<svg width="132" height="138" viewBox="0 0 132 138" fill="none" xmlns="http://www.w3.org/2000/svg">
<path fill-rule="evenodd" clip-rule="evenodd" d="M17.1867 114.603H5C4.44772 114.603 4 115.051 4 115.603V136.603C4 137.156 4.44771 137.603 5 137.603H21.5533C22.1056 137.603 22.5533 137.156 22.5533 136.603V120.277H18.1867C17.6344 120.277 17.1867 119.829 17.1867 119.277V114.603Z" fill="#C4C4C4"/>
<path d="M20.0233 117.593L17.1867 114.603V119.277C17.1867 119.829 17.6344 120.277 18.1867 120.277H22.5533L20.0233 117.593Z" fill="#9E9797"/>
<line x1="7.33667" y1="120.352" x2="11.6268" y2="120.352" stroke="#525356" stroke-linecap="round"/>
<line x1="7.33519" y1="123.608" x2="19.2923" y2="123.573" stroke="#525356" stroke-linecap="round"/>
<line x1="7.33815" y1="126.87" x2="19.2957" y2="126.905" stroke="#525356" stroke-linecap="round"/>
<line x1="7.33815" y1="129.975" x2="19.2957" y2="130.01" stroke="#525356" stroke-linecap="round"/>
<path d="M4.41477 5.30966C3.86249 5.30966 3.41477 5.75737 3.41477 6.30966V8.64205H20.9915C20.9915 8.64205 20.7955 21.1875 20.9915 21.8409C21.1875 22.4943 22.2656 22.8864 22.2656 22.8864H22.5625C23.3909 22.8864 24.0625 22.2148 24.0625 21.3864V4.21875C24.0625 3.66647 23.6148 3.21875 23.0625 3.21875H17.375C17.0602 3.21875 16.7639 3.36694 16.575 3.61875L15.6068 4.90966C15.418 5.16147 15.1216 5.30966 14.8068 5.30966H4.41477Z" fill="#C4C4C4"/>
<path d="M22.2656 22.8864H22.5625C23.3909 22.8864 24.0625 22.2148 24.0625 21.3864V4.21875C24.0625 3.66647 23.6148 3.21875 23.0625 3.21875H17.375C17.0602 3.21875 16.7639 3.36694 16.575 3.61875L15.6068 4.90966C15.418 5.16147 15.1216 5.30966 14.8068 5.30966H4.41477C3.86249 5.30966 3.41477 5.75737 3.41477 6.30966V8.64205H20.9915M22.2656 22.8864H2.0625C1.51022 22.8864 1.0625 22.4386 1.0625 21.8864V9.64205C1.0625 9.08976 1.51022 8.64205 2.0625 8.64205H20.9915M22.2656 22.8864C22.2656 22.8864 21.1875 22.4943 20.9915 21.8409C20.7955 21.1875 20.9915 8.64205 20.9915 8.64205" stroke="#A9ABAE" stroke-width="0.5"/>
<path d="M20.9915 8.64205H3.41477H1.0625V21.8864C1.0625 22.4386 1.51022 22.8864 2.0625 22.8864H22.2656C22.2656 22.8864 21.1875 22.4943 20.9915 21.8409C20.7955 21.1875 20.9915 8.64205 20.9915 8.64205Z" fill="#DDDEDF"/>
<path d="M3.41477 8.64205V6.30966C3.41477 5.75737 3.86249 5.30966 4.41477 5.30966H14.8068C15.1216 5.30966 15.418 5.16147 15.6068 4.90966L16.575 3.61875C16.7639 3.36694 17.0602 3.21875 17.375 3.21875H23.0625C23.6148 3.21875 24.0625 3.66647 24.0625 4.21875V21.3864C24.0625 22.2148 23.3909 22.8864 22.5625 22.8864H22.2656M3.41477 8.64205H20.9915M3.41477 8.64205H1.0625M22.2656 22.8864H2.0625C1.51022 22.8864 1.0625 22.4386 1.0625 21.8864V8.64205M22.2656 22.8864C22.2656 22.8864 21.1875 22.4943 20.9915 21.8409C20.7955 21.1875 20.9915 8.64205 20.9915 8.64205M20.9915 8.64205H1.0625" stroke="#A9ABAD" stroke-width="0.5"/>
<path d="M4.41477 61.1933C3.86249 61.1933 3.41477 61.641 3.41477 62.1933V64.5257H20.9915C20.9915 64.5257 20.7955 77.0711 20.9915 77.7246C21.1875 78.378 22.2656 78.77 22.2656 78.77H22.5625C23.3909 78.77 24.0625 78.0984 24.0625 77.27V60.1024C24.0625 59.5501 23.6148 59.1024 23.0625 59.1024H17.375C17.0602 59.1024 16.7639 59.2506 16.575 59.5024L15.6068 60.7933C15.418 61.0451 15.1216 61.1933 14.8068 61.1933H4.41477Z" fill="#C4C4C4"/>
<path d="M22.2656 78.77H22.5625C23.3909 78.77 24.0625 78.0984 24.0625 77.27V60.1024C24.0625 59.5501 23.6148 59.1024 23.0625 59.1024H17.375C17.0602 59.1024 16.7639 59.2506 16.575 59.5024L15.6068 60.7933C15.418 61.0451 15.1216 61.1933 14.8068 61.1933H4.41477C3.86249 61.1933 3.41477 61.641 3.41477 62.1933V64.5257H20.9915M22.2656 78.77H2.0625C1.51022 78.77 1.0625 78.3223 1.0625 77.77V65.5257C1.0625 64.9734 1.51022 64.5257 2.0625 64.5257H20.9915M22.2656 78.77C22.2656 78.77 21.1875 78.378 20.9915 77.7246C20.7955 77.0711 20.9915 64.5257 20.9915 64.5257" stroke="#A9ABAE" stroke-width="0.5"/>
<path d="M20.9915 64.5257H3.41477H1.0625V77.77C1.0625 78.3223 1.51022 78.77 2.0625 78.77H22.2656C22.2656 78.77 21.1875 78.378 20.9915 77.7246C20.7955 77.0711 20.9915 64.5257 20.9915 64.5257Z" fill="#DDDEDF"/>
<path d="M3.41477 64.5257V62.1933C3.41477 61.641 3.86249 61.1933 4.41477 61.1933H14.8068C15.1216 61.1933 15.418 61.0451 15.6068 60.7933L16.575 59.5024C16.7639 59.2506 17.0602 59.1024 17.375 59.1024H23.0625C23.6148 59.1024 24.0625 59.5501 24.0625 60.1024V77.27C24.0625 78.0984 23.3909 78.77 22.5625 78.77H22.2656M3.41477 64.5257H20.9915M3.41477 64.5257H1.0625M22.2656 78.77H2.0625C1.51022 78.77 1.0625 78.3223 1.0625 77.77V64.5257M22.2656 78.77C22.2656 78.77 21.1875 78.378 20.9915 77.7246C20.7955 77.0711 20.9915 64.5257 20.9915 64.5257M20.9915 64.5257H1.0625" stroke="#A9ABAD" stroke-width="0.5"/>
<path d="M4.41477 88.9435C3.86249 88.9435 3.41477 89.3912 3.41477 89.9435V92.2759H20.9915C20.9915 92.2759 20.7955 104.821 20.9915 105.475C21.1875 106.128 22.2656 106.52 22.2656 106.52H22.5625C23.3909 106.52 24.0625 105.849 24.0625 105.02V87.8526C24.0625 87.3003 23.6148 86.8526 23.0625 86.8526H17.375C17.0602 86.8526 16.7639 87.0008 16.575 87.2526L15.6068 88.5435C15.418 88.7953 15.1216 88.9435 14.8068 88.9435H4.41477Z" fill="#C4C4C4"/>
<path d="M22.2656 106.52H22.5625C23.3909 106.52 24.0625 105.849 24.0625 105.02V87.8526C24.0625 87.3003 23.6148 86.8526 23.0625 86.8526H17.375C17.0602 86.8526 16.7639 87.0008 16.575 87.2526L15.6068 88.5435C15.418 88.7953 15.1216 88.9435 14.8068 88.9435H4.41477C3.86249 88.9435 3.41477 89.3912 3.41477 89.9435V92.2759H20.9915M22.2656 106.52H2.0625C1.51022 106.52 1.0625 106.073 1.0625 105.52V93.2759C1.0625 92.7236 1.51022 92.2759 2.0625 92.2759H20.9915M22.2656 106.52C22.2656 106.52 21.1875 106.128 20.9915 105.475C20.7955 104.821 20.9915 92.2759 20.9915 92.2759" stroke="#A9ABAE" stroke-width="0.5"/>
<path d="M20.9915 92.2759H3.41477H1.0625V105.52C1.0625 106.073 1.51022 106.52 2.0625 106.52H22.2656C22.2656 106.52 21.1875 106.128 20.9915 105.475C20.7955 104.821 20.9915 92.2759 20.9915 92.2759Z" fill="#DDDEDF"/>
<path d="M3.41477 92.2759V89.9435C3.41477 89.3912 3.86249 88.9435 4.41477 88.9435H14.8068C15.1216 88.9435 15.418 88.7953 15.6068 88.5435L16.575 87.2526C16.7639 87.0008 17.0602 86.8526 17.375 86.8526H23.0625C23.6148 86.8526 24.0625 87.3003 24.0625 87.8526V105.02C24.0625 105.849 23.3909 106.52 22.5625 106.52H22.2656M3.41477 92.2759H20.9915M3.41477 92.2759H1.0625M22.2656 106.52H2.0625C1.51022 106.52 1.0625 106.073 1.0625 105.52V92.2759M22.2656 106.52C22.2656 106.52 21.1875 106.128 20.9915 105.475C20.7955 104.821 20.9915 92.2759 20.9915 92.2759M20.9915 92.2759H1.0625" stroke="#A9ABAD" stroke-width="0.5"/>
<path d="M4.41477 33.0909C3.86249 33.0909 3.41477 33.5386 3.41477 34.0909V36.4233H20.9915C20.9915 36.4233 20.7955 48.9688 20.9915 49.6222C21.1875 50.2756 22.2656 50.6676 22.2656 50.6676H22.5625C23.3909 50.6676 24.0625 49.996 24.0625 49.1676V32C24.0625 31.4477 23.6148 31 23.0625 31H17.375C17.0602 31 16.7639 31.1482 16.575 31.4L15.6068 32.6909C15.418 32.9427 15.1216 33.0909 14.8068 33.0909H4.41477Z" fill="#C4C4C4"/>
<path d="M22.2656 50.6676H22.5625C23.3909 50.6676 24.0625 49.996 24.0625 49.1676V32C24.0625 31.4477 23.6148 31 23.0625 31H17.375C17.0602 31 16.7639 31.1482 16.575 31.4L15.6068 32.6909C15.418 32.9427 15.1216 33.0909 14.8068 33.0909H4.41477C3.86249 33.0909 3.41477 33.5386 3.41477 34.0909V36.4233H20.9915M22.2656 50.6676H2.0625C1.51022 50.6676 1.0625 50.2199 1.0625 49.6676V37.4233C1.0625 36.871 1.51022 36.4233 2.0625 36.4233H20.9915M22.2656 50.6676C22.2656 50.6676 21.1875 50.2756 20.9915 49.6222C20.7955 48.9688 20.9915 36.4233 20.9915 36.4233" stroke="#A9ABAE" stroke-width="0.5"/>
<path d="M20.9915 36.4233H3.41477H1.0625V49.6676C1.0625 50.2199 1.51022 50.6676 2.0625 50.6676H22.2656C22.2656 50.6676 21.1875 50.2756 20.9915 49.6222C20.7955 48.9688 20.9915 36.4233 20.9915 36.4233Z" fill="#DDDEDF"/>
<path d="M3.41477 36.4233V34.0909C3.41477 33.5386 3.86249 33.0909 4.41477 33.0909H14.8068C15.1216 33.0909 15.418 32.9427 15.6068 32.6909L16.575 31.4C16.7639 31.1482 17.0602 31 17.375 31H23.0625C23.6148 31 24.0625 31.4477 24.0625 32V49.1676C24.0625 49.996 23.3909 50.6676 22.5625 50.6676H22.2656M3.41477 36.4233H20.9915M3.41477 36.4233H1.0625M22.2656 50.6676H2.0625C1.51022 50.6676 1.0625 50.2199 1.0625 49.6676V36.4233M22.2656 50.6676C22.2656 50.6676 21.1875 50.2756 20.9915 49.6222C20.7955 48.9688 20.9915 36.4233 20.9915 36.4233M20.9915 36.4233H1.0625" stroke="#A9ABAD" stroke-width="0.5"/>
<path d="M38.1133 18.8711C36.8239 18.8711 35.814 18.4643 35.0835 17.6508C34.353 16.8374 33.9878 15.7029 33.9878 14.2475C33.9878 12.7534 34.3669 11.5913 35.125 10.7612C35.8831 9.92559 36.9207 9.50778 38.2378 9.50778C39.0181 9.50778 39.7651 9.64336 40.479 9.91452L40.2549 10.645C39.4746 10.3849 38.7967 10.2549 38.2212 10.2549C37.1144 10.2549 36.276 10.598 35.7061 11.2841C35.1361 11.9648 34.8511 12.9471 34.8511 14.2309C34.8511 15.4484 35.1361 16.403 35.7061 17.0947C36.276 17.7809 37.0729 18.124 38.0967 18.124C38.9157 18.124 39.6766 17.9773 40.3794 17.6841V18.4477C39.8039 18.7299 39.0485 18.8711 38.1133 18.8711ZM50.0581 14.1811C50.0581 15.6531 49.7012 16.8042 48.9873 17.6342C48.2734 18.4588 47.2884 18.8711 46.0322 18.8711C45.2409 18.8711 44.5436 18.6801 43.9404 18.2983C43.3372 17.9165 42.8752 17.3686 42.5542 16.6548C42.2332 15.9409 42.0728 15.1163 42.0728 14.1811C42.0728 12.7091 42.4297 11.5636 43.1436 10.7446C43.8574 9.92005 44.8369 9.50778 46.082 9.50778C47.3216 9.50778 48.2928 9.92559 48.9956 10.7612C49.7039 11.5913 50.0581 12.7313 50.0581 14.1811ZM42.936 14.1811C42.936 15.4207 43.2072 16.3891 43.7495 17.0864C44.2974 17.7781 45.0693 18.124 46.0654 18.124C47.0615 18.124 47.8307 17.7781 48.373 17.0864C48.9209 16.3891 49.1948 15.4207 49.1948 14.1811C49.1948 12.936 48.9181 11.9703 48.3647 11.2841C47.8169 10.598 47.0449 10.2549 46.0488 10.2549C45.0527 10.2549 44.2835 10.598 43.7412 11.2841C43.2044 11.9648 42.936 12.9305 42.936 14.1811ZM58.8486 18.705V12.853C58.8486 11.9454 58.6577 11.2869 58.2759 10.8774C57.894 10.4624 57.3019 10.2549 56.4995 10.2549C55.4204 10.2549 54.6291 10.5288 54.1255 11.0766C53.6274 11.6189 53.3784 12.5016 53.3784 13.7246V18.705H52.5566V9.6821H53.2539L53.4116 10.9189H53.4614C54.048 9.97816 55.0911 9.50778 56.5908 9.50778C58.6383 9.50778 59.6621 10.6063 59.6621 12.8032V18.705H58.8486ZM65.9375 10.396H63.8125V18.705H62.9907V10.396H61.314V9.91452L62.9907 9.60739V8.91013C62.9907 7.80335 63.1927 6.99265 63.5967 6.478C64.0062 5.95781 64.673 5.69772 65.5972 5.69772C66.0952 5.69772 66.5933 5.77243 67.0913 5.92184L66.9004 6.63571C66.4577 6.49737 66.0177 6.42819 65.5806 6.42819C64.9386 6.42819 64.4821 6.61911 64.2109 7.00095C63.9453 7.37725 63.8125 7.99151 63.8125 8.84372V9.6821H65.9375V10.396ZM68.5024 18.705H67.6807V9.6821H68.5024V18.705ZM67.5645 7.17526C67.5645 6.64401 67.7388 6.37839 68.0874 6.37839C68.259 6.37839 68.3918 6.44756 68.4858 6.58591C68.5854 6.72425 68.6353 6.92071 68.6353 7.17526C68.6353 7.42429 68.5854 7.62074 68.4858 7.76462C68.3918 7.9085 68.259 7.98044 68.0874 7.98044C67.7388 7.98044 67.5645 7.71205 67.5645 7.17526ZM78.5713 9.6821V10.2549L76.7036 10.3711C77.2017 10.9909 77.4507 11.6715 77.4507 12.4131C77.4507 13.2819 77.1602 13.9874 76.5791 14.5298C76.0036 15.0665 75.2288 15.3349 74.2549 15.3349C73.8454 15.3349 73.5576 15.3183 73.3916 15.2851C73.0651 15.4567 72.8161 15.6587 72.6445 15.8911C72.473 16.1235 72.3872 16.3698 72.3872 16.6299C72.3872 16.9176 72.4951 17.1279 72.7109 17.2607C72.9323 17.3935 73.3003 17.4599 73.8149 17.4599H75.3921C76.3716 17.4599 77.1214 17.6591 77.6416 18.0576C78.1618 18.4505 78.4219 19.0343 78.4219 19.8091C78.4219 20.7609 78.0345 21.4941 77.2598 22.0088C76.4906 22.5289 75.3921 22.789 73.9644 22.789C72.8299 22.789 71.95 22.5704 71.3247 22.1333C70.7049 21.6961 70.395 21.0874 70.395 20.3071C70.395 19.6873 70.5859 19.1727 70.9678 18.7632C71.3551 18.3536 71.8781 18.0742 72.5366 17.9248C72.2655 17.8086 72.0469 17.6453 71.8809 17.435C71.7204 17.2192 71.6401 16.973 71.6401 16.6963C71.6401 16.0931 72.0247 15.5618 72.7939 15.1025C72.2682 14.8867 71.8587 14.5491 71.5654 14.0898C71.2721 13.625 71.1255 13.0937 71.1255 12.4961C71.1255 11.594 71.4105 10.8719 71.9805 10.3296C72.556 9.78171 73.3307 9.50778 74.3047 9.50778C74.8968 9.50778 75.3561 9.56589 75.6826 9.6821H78.5713ZM71.2666 20.2324C71.2666 21.472 72.188 22.0918 74.0308 22.0918C76.3993 22.0918 77.5835 21.3364 77.5835 19.8257C77.5835 19.2833 77.3981 18.8904 77.0273 18.6469C76.6566 18.4035 76.0562 18.2817 75.2261 18.2817H73.7485C72.0939 18.2817 71.2666 18.9319 71.2666 20.2324ZM71.9556 12.4961C71.9556 13.1933 72.1659 13.7356 72.5864 14.123C73.0125 14.5049 73.5798 14.6958 74.2881 14.6958C75.0407 14.6958 75.6162 14.5049 76.0146 14.123C76.4186 13.7412 76.6206 13.1878 76.6206 12.4629C76.6206 11.6937 76.4131 11.1181 75.998 10.7363C75.5885 10.3489 75.013 10.1552 74.2715 10.1552C73.5521 10.1552 72.9849 10.3628 72.5698 10.7778C72.1603 11.1873 71.9556 11.7601 71.9556 12.4961Z" fill="black"/>
<path d="M38.1133 46.0955C36.8239 46.0955 35.814 45.6888 35.0835 44.8753C34.353 44.0618 33.9878 42.9274 33.9878 41.472C33.9878 39.9778 34.3669 38.8157 35.125 37.9856C35.8831 37.15 36.9207 36.7322 38.2378 36.7322C39.0181 36.7322 39.7651 36.8678 40.479 37.139L40.2549 37.8694C39.4746 37.6093 38.7967 37.4793 38.2212 37.4793C37.1144 37.4793 36.276 37.8224 35.7061 38.5086C35.1361 39.1892 34.8511 40.1715 34.8511 41.4554C34.8511 42.6728 35.1361 43.6274 35.7061 44.3191C36.276 45.0053 37.0729 45.3484 38.0967 45.3484C38.9157 45.3484 39.6766 45.2018 40.3794 44.9085V45.6722C39.8039 45.9544 39.0485 46.0955 38.1133 46.0955ZM50.0581 41.4056C50.0581 42.8776 49.7012 44.0286 48.9873 44.8587C48.2734 45.6832 47.2884 46.0955 46.0322 46.0955C45.2409 46.0955 44.5436 45.9046 43.9404 45.5227C43.3372 45.1409 42.8752 44.5931 42.5542 43.8792C42.2332 43.1653 42.0728 42.3408 42.0728 41.4056C42.0728 39.9335 42.4297 38.788 43.1436 37.969C43.8574 37.1445 44.8369 36.7322 46.082 36.7322C47.3216 36.7322 48.2928 37.15 48.9956 37.9856C49.7039 38.8157 50.0581 39.9557 50.0581 41.4056ZM42.936 41.4056C42.936 42.6451 43.2072 43.6136 43.7495 44.3108C44.2974 45.0026 45.0693 45.3484 46.0654 45.3484C47.0615 45.3484 47.8307 45.0026 48.373 44.3108C48.9209 43.6136 49.1948 42.6451 49.1948 41.4056C49.1948 40.1604 48.9181 39.1948 48.3647 38.5086C47.8169 37.8224 47.0449 37.4793 46.0488 37.4793C45.0527 37.4793 44.2835 37.8224 43.7412 38.5086C43.2044 39.1892 42.936 40.1549 42.936 41.4056ZM58.8486 45.9295V40.0774C58.8486 39.1699 58.6577 38.5113 58.2759 38.1018C57.894 37.6868 57.3019 37.4793 56.4995 37.4793C55.4204 37.4793 54.6291 37.7532 54.1255 38.3011C53.6274 38.8434 53.3784 39.726 53.3784 40.949V45.9295H52.5566V36.9065H53.2539L53.4116 38.1433H53.4614C54.048 37.2026 55.0911 36.7322 56.5908 36.7322C58.6383 36.7322 59.6621 37.8307 59.6621 40.0276V45.9295H58.8486ZM64.9663 45.365C65.4865 45.365 65.9403 45.3208 66.3276 45.2322V45.8963C65.9292 46.0291 65.4699 46.0955 64.9497 46.0955C64.1528 46.0955 63.5635 45.8824 63.1816 45.4563C62.8053 45.0302 62.6172 44.3606 62.6172 43.4475V37.6204H61.2808V37.139L62.6172 36.7654L63.0322 34.7234H63.4556V36.9065H66.1035V37.6204H63.4556V43.3313C63.4556 44.0231 63.5773 44.5349 63.8208 44.867C64.0643 45.199 64.4461 45.365 64.9663 45.365ZM71.8311 36.7322C72.2129 36.7322 72.6224 36.771 73.0596 36.8484L72.9019 37.637C72.5256 37.5429 72.1354 37.4959 71.7314 37.4959C70.9622 37.4959 70.3314 37.8224 69.8389 38.4754C69.3464 39.1284 69.1001 39.9529 69.1001 40.949V45.9295H68.2783V36.9065H68.9756L69.0586 38.5335H69.1167C69.4875 37.8694 69.8831 37.4046 70.3037 37.139C70.7243 36.8678 71.2334 36.7322 71.8311 36.7322ZM82.3647 41.4056C82.3647 42.8776 82.0078 44.0286 81.2939 44.8587C80.5801 45.6832 79.5951 46.0955 78.3389 46.0955C77.5475 46.0955 76.8503 45.9046 76.2471 45.5227C75.6439 45.1409 75.1818 44.5931 74.8608 43.8792C74.5399 43.1653 74.3794 42.3408 74.3794 41.4056C74.3794 39.9335 74.7363 38.788 75.4502 37.969C76.1641 37.1445 77.1436 36.7322 78.3887 36.7322C79.6283 36.7322 80.5994 37.15 81.3022 37.9856C82.0106 38.8157 82.3647 39.9557 82.3647 41.4056ZM75.2427 41.4056C75.2427 42.6451 75.5138 43.6136 76.0562 44.3108C76.604 45.0026 77.376 45.3484 78.3721 45.3484C79.3682 45.3484 80.1374 45.0026 80.6797 44.3108C81.2275 43.6136 81.5015 42.6451 81.5015 41.4056C81.5015 40.1604 81.2248 39.1948 80.6714 38.5086C80.1235 37.8224 79.3516 37.4793 78.3555 37.4793C77.3594 37.4793 76.5902 37.8224 76.0479 38.5086C75.5111 39.1892 75.2427 40.1549 75.2427 41.4056ZM85.6851 45.9295H84.8633V33.0135H85.6851V45.9295ZM89.5366 45.9295H88.7148V33.0135H89.5366V45.9295ZM96.2104 46.0955C94.8989 46.0955 93.8752 45.6915 93.1392 44.8836C92.4087 44.0756 92.0435 42.944 92.0435 41.4886C92.0435 40.0498 92.3976 38.8987 93.106 38.0354C93.8143 37.1666 94.7689 36.7322 95.9697 36.7322C97.0322 36.7322 97.8706 37.103 98.4849 37.8445C99.0991 38.5861 99.4062 39.5932 99.4062 40.866V41.5301H92.9067C92.9178 42.7696 93.2056 43.7159 93.77 44.3689C94.34 45.0219 95.1535 45.3484 96.2104 45.3484C96.7251 45.3484 97.1761 45.3125 97.5635 45.2405C97.9564 45.1686 98.4517 45.0136 99.0493 44.7757V45.5227C98.5402 45.7441 98.0698 45.8935 97.6382 45.971C97.2065 46.054 96.7306 46.0955 96.2104 46.0955ZM95.9697 37.4627C95.1009 37.4627 94.4036 37.7504 93.8779 38.326C93.3522 38.896 93.0451 39.7205 92.9565 40.7996H98.5347C98.5347 39.7537 98.3078 38.9375 97.854 38.3509C97.4002 37.7587 96.7721 37.4627 95.9697 37.4627ZM105.449 36.7322C105.831 36.7322 106.241 36.771 106.678 36.8484L106.52 37.637C106.144 37.5429 105.754 37.4959 105.35 37.4959C104.58 37.4959 103.95 37.8224 103.457 38.4754C102.965 39.1284 102.718 39.9529 102.718 40.949V45.9295H101.896V36.9065H102.594L102.677 38.5335H102.735C103.106 37.8694 103.501 37.4046 103.922 37.139C104.342 36.8678 104.852 36.7322 105.449 36.7322ZM114.115 43.5804C114.115 44.3883 113.808 45.0109 113.194 45.448C112.58 45.8797 111.708 46.0955 110.579 46.0955C109.373 46.0955 108.415 45.9101 107.707 45.5393V44.6512C108.615 45.1049 109.572 45.3318 110.579 45.3318C111.47 45.3318 112.145 45.1852 112.604 44.8919C113.069 44.5931 113.302 44.1974 113.302 43.7049C113.302 43.2511 113.116 42.8693 112.746 42.5594C112.38 42.2495 111.777 41.9451 110.936 41.6463C110.034 41.3198 109.4 41.0403 109.035 40.8079C108.67 40.5699 108.393 40.3043 108.205 40.011C108.022 39.7122 107.931 39.3497 107.931 38.9236C107.931 38.2485 108.213 37.7145 108.778 37.3216C109.348 36.9287 110.142 36.7322 111.16 36.7322C112.134 36.7322 113.058 36.9148 113.933 37.2801L113.625 38.0271C112.74 37.6619 111.918 37.4793 111.16 37.4793C110.424 37.4793 109.84 37.601 109.409 37.8445C108.977 38.088 108.761 38.4256 108.761 38.8572C108.761 39.3276 108.927 39.7039 109.259 39.9861C109.597 40.2683 110.253 40.5838 111.227 40.9324C112.04 41.2257 112.632 41.4913 113.003 41.7293C113.374 41.9617 113.65 42.2273 113.833 42.5262C114.021 42.825 114.115 43.1764 114.115 43.5804Z" fill="black"/>
<path d="M41.0117 71.4325C41.0117 72.2404 40.7046 72.863 40.0903 73.3002C39.4761 73.7318 38.6045 73.9476 37.4756 73.9476C36.2692 73.9476 35.3118 73.7622 34.6035 73.3915V72.5033C35.5111 72.9571 36.4684 73.184 37.4756 73.184C38.3665 73.184 39.0417 73.0373 39.501 72.744C39.9658 72.4452 40.1982 72.0495 40.1982 71.557C40.1982 71.1032 40.0129 70.7214 39.6421 70.4115C39.2769 70.1016 38.6737 69.7972 37.8325 69.4984C36.9305 69.1719 36.2969 68.8925 35.9316 68.66C35.5664 68.4221 35.2897 68.1565 35.1016 67.8632C34.9189 67.5643 34.8276 67.2019 34.8276 66.7758C34.8276 66.1006 35.1099 65.5666 35.6743 65.1737C36.2443 64.7808 37.0384 64.5844 38.0566 64.5844C39.0306 64.5844 39.9548 64.767 40.8291 65.1322L40.522 65.8793C39.6366 65.514 38.8148 65.3314 38.0566 65.3314C37.3206 65.3314 36.7368 65.4532 36.3052 65.6967C35.8735 65.9401 35.6577 66.2777 35.6577 66.7094C35.6577 67.1797 35.8237 67.556 36.1558 67.8383C36.4933 68.1205 37.1491 68.4359 38.123 68.7845C38.9365 69.0778 39.5286 69.3435 39.8994 69.5814C40.2702 69.8138 40.5469 70.0795 40.7295 70.3783C40.9176 70.6771 41.0117 71.0285 41.0117 71.4325ZM46.98 73.9476C45.6685 73.9476 44.6447 73.5437 43.9087 72.7357C43.1782 71.9278 42.813 70.7961 42.813 69.3407C42.813 67.9019 43.1672 66.7509 43.8755 65.8876C44.5838 65.0188 45.5384 64.5844 46.7393 64.5844C47.8018 64.5844 48.6401 64.9551 49.2544 65.6967C49.8687 66.4382 50.1758 67.4454 50.1758 68.7181V69.3822H43.6763C43.6873 70.6218 43.9751 71.5681 44.5396 72.2211C45.1095 72.8741 45.923 73.2006 46.98 73.2006C47.4946 73.2006 47.9456 73.1646 48.333 73.0927C48.7259 73.0207 49.2212 72.8658 49.8188 72.6278V73.3749C49.3097 73.5962 48.8394 73.7456 48.4077 73.8231C47.9761 73.9061 47.5002 73.9476 46.98 73.9476ZM46.7393 65.3148C45.8704 65.3148 45.1732 65.6026 44.6475 66.1781C44.1217 66.7481 43.8146 67.5726 43.7261 68.6517H49.3042C49.3042 67.6058 49.0773 66.7896 48.6235 66.203C48.1698 65.6109 47.5417 65.3148 46.7393 65.3148ZM56.2188 64.5844C56.6006 64.5844 57.0101 64.6231 57.4473 64.7006L57.2896 65.4891C56.9132 65.3951 56.5231 65.348 56.1191 65.348C55.3499 65.348 54.7191 65.6745 54.2266 66.3275C53.734 66.9805 53.4878 67.8051 53.4878 68.8011V73.7816H52.666V64.7587H53.3633L53.4463 66.3856H53.5044C53.8752 65.7216 54.2708 65.2567 54.6914 64.9911C55.112 64.7199 55.6211 64.5844 56.2188 64.5844ZM61.2656 73.7816L57.7793 64.7587H58.626L60.9585 70.8929C61.2684 71.6788 61.5008 72.3649 61.6558 72.9515H61.7056C61.9325 72.1989 62.1649 71.5072 62.4028 70.8763L64.7354 64.7587H65.582L62.0957 73.7816H61.2656ZM67.9146 73.7816H67.0928V64.7587H67.9146V73.7816ZM66.9766 62.2518C66.9766 61.7206 67.1509 61.455 67.4995 61.455C67.6711 61.455 67.8039 61.5241 67.8979 61.6625C67.9976 61.8008 68.0474 61.9973 68.0474 62.2518C68.0474 62.5009 67.9976 62.6973 67.8979 62.8412C67.8039 62.9851 67.6711 63.057 67.4995 63.057C67.1509 63.057 66.9766 62.7886 66.9766 62.2518ZM74.5469 73.9476C73.2575 73.9476 72.2476 73.5409 71.5171 72.7274C70.7866 71.9139 70.4214 70.7795 70.4214 69.3241C70.4214 67.83 70.8005 66.6678 71.5586 65.8378C72.3167 65.0022 73.3543 64.5844 74.6714 64.5844C75.4517 64.5844 76.1987 64.7199 76.9126 64.9911L76.6885 65.7216C75.9082 65.4615 75.2303 65.3314 74.6548 65.3314C73.548 65.3314 72.7096 65.6745 72.1396 66.3607C71.5697 67.0414 71.2847 68.0236 71.2847 69.3075C71.2847 70.5249 71.5697 71.4795 72.1396 72.1713C72.7096 72.8575 73.5065 73.2006 74.5303 73.2006C75.3493 73.2006 76.1102 73.0539 76.813 72.7606V73.5243C76.2375 73.8065 75.4821 73.9476 74.5469 73.9476ZM82.6733 73.9476C81.3618 73.9476 80.3381 73.5437 79.6021 72.7357C78.8716 71.9278 78.5063 70.7961 78.5063 69.3407C78.5063 67.9019 78.8605 66.7509 79.5688 65.8876C80.2772 65.0188 81.2318 64.5844 82.4326 64.5844C83.4951 64.5844 84.3335 64.9551 84.9478 65.6967C85.562 66.4382 85.8691 67.4454 85.8691 68.7181V69.3822H79.3696C79.3807 70.6218 79.6685 71.5681 80.2329 72.2211C80.8029 72.8741 81.6164 73.2006 82.6733 73.2006C83.188 73.2006 83.639 73.1646 84.0264 73.0927C84.4193 73.0207 84.9146 72.8658 85.5122 72.6278V73.3749C85.0031 73.5962 84.5327 73.7456 84.1011 73.8231C83.6694 73.9061 83.1935 73.9476 82.6733 73.9476ZM82.4326 65.3148C81.5638 65.3148 80.8665 65.6026 80.3408 66.1781C79.8151 66.7481 79.508 67.5726 79.4194 68.6517H84.9976C84.9976 67.6058 84.7707 66.7896 84.3169 66.203C83.8631 65.6109 83.235 65.3148 82.4326 65.3148ZM93.9541 71.4325C93.9541 72.2404 93.647 72.863 93.0327 73.3002C92.4185 73.7318 91.5469 73.9476 90.418 73.9476C89.2116 73.9476 88.2542 73.7622 87.5459 73.3915V72.5033C88.4535 72.9571 89.4108 73.184 90.418 73.184C91.3089 73.184 91.984 73.0373 92.4434 72.744C92.9082 72.4452 93.1406 72.0495 93.1406 71.557C93.1406 71.1032 92.9552 70.7214 92.5845 70.4115C92.2192 70.1016 91.616 69.7972 90.7749 69.4984C89.8729 69.1719 89.2393 68.8925 88.874 68.66C88.5088 68.4221 88.2321 68.1565 88.0439 67.8632C87.8613 67.5643 87.77 67.2019 87.77 66.7758C87.77 66.1006 88.0522 65.5666 88.6167 65.1737C89.1867 64.7808 89.9808 64.5844 90.999 64.5844C91.973 64.5844 92.8971 64.767 93.7715 65.1322L93.4644 65.8793C92.5789 65.514 91.7572 65.3314 90.999 65.3314C90.263 65.3314 89.6792 65.4532 89.2476 65.6967C88.8159 65.9401 88.6001 66.2777 88.6001 66.7094C88.6001 67.1797 88.7661 67.556 89.0981 67.8383C89.4357 68.1205 90.0915 68.4359 91.0654 68.7845C91.8789 69.0778 92.471 69.3435 92.8418 69.5814C93.2126 69.8138 93.4893 70.0795 93.6719 70.3783C93.86 70.6771 93.9541 71.0285 93.9541 71.4325Z" fill="black"/>
<path d="M38.9697 91.5735C39.3516 91.5735 39.7611 91.6122 40.1982 91.6897L40.0405 92.4782C39.6642 92.3842 39.2741 92.3371 38.8701 92.3371C38.1009 92.3371 37.4701 92.6636 36.9775 93.3166C36.485 93.9696 36.2388 94.7942 36.2388 95.7903V100.771H35.417V91.7478H36.1143L36.1973 93.3747H36.2554C36.6261 92.7107 37.0218 92.2458 37.4424 91.9802C37.863 91.709 38.3721 91.5735 38.9697 91.5735ZM49.5034 96.2468C49.5034 97.7188 49.1465 98.8699 48.4326 99.6999C47.7188 100.524 46.7337 100.937 45.4775 100.937C44.6862 100.937 43.9889 100.746 43.3857 100.364C42.7826 99.9822 42.3205 99.4343 41.9995 98.7204C41.6785 98.0066 41.5181 97.182 41.5181 96.2468C41.5181 94.7748 41.875 93.6293 42.5889 92.8103C43.3027 91.9857 44.2822 91.5735 45.5273 91.5735C46.7669 91.5735 47.7381 91.9913 48.4409 92.8269C49.1493 93.657 49.5034 94.7969 49.5034 96.2468ZM42.3813 96.2468C42.3813 97.4864 42.6525 98.4548 43.1948 99.1521C43.7427 99.8438 44.5146 100.19 45.5107 100.19C46.5068 100.19 47.276 99.8438 47.8184 99.1521C48.3662 98.4548 48.6401 97.4864 48.6401 96.2468C48.6401 95.0017 48.3634 94.036 47.8101 93.3498C47.2622 92.6636 46.4902 92.3205 45.4941 92.3205C44.498 92.3205 43.7288 92.6636 43.1865 93.3498C42.6497 94.0305 42.3813 94.9962 42.3813 96.2468ZM52.7158 91.7478V97.5915C52.7158 98.4991 52.9067 99.1604 53.2886 99.5754C53.6704 99.9849 54.2625 100.19 55.0649 100.19C56.1385 100.19 56.9271 99.9185 57.4307 99.3762C57.9398 98.8339 58.1943 97.9512 58.1943 96.7282V91.7478H59.0078V100.771H58.3105L58.1611 99.5256H58.1113C57.5247 100.466 56.4816 100.937 54.9819 100.937C52.9289 100.937 51.9023 99.8383 51.9023 97.6413V91.7478H52.7158ZM64.4116 100.206C64.9318 100.206 65.3856 100.162 65.7729 100.073V100.738C65.3745 100.87 64.9152 100.937 64.395 100.937C63.5981 100.937 63.0088 100.724 62.627 100.298C62.2507 99.8715 62.0625 99.2019 62.0625 98.2888V92.4616H60.7261V91.9802L62.0625 91.6067L62.4775 89.5647H62.9009V91.7478H65.5488V92.4616H62.9009V98.1726C62.9009 98.8643 63.0226 99.3762 63.2661 99.7082C63.5096 100.04 63.8914 100.206 64.4116 100.206ZM71.3677 100.937C70.0562 100.937 69.0324 100.533 68.2964 99.7248C67.5659 98.9169 67.2007 97.7852 67.2007 96.3298C67.2007 94.891 67.5549 93.74 68.2632 92.8767C68.9715 92.0079 69.9261 91.5735 71.127 91.5735C72.1895 91.5735 73.0278 91.9442 73.6421 92.6858C74.2563 93.4273 74.5635 94.4345 74.5635 95.7073V96.3713H68.064C68.075 97.6109 68.3628 98.5572 68.9272 99.2102C69.4972 99.8632 70.3107 100.19 71.3677 100.19C71.8823 100.19 72.3333 100.154 72.7207 100.082C73.1136 100.01 73.6089 99.8549 74.2065 99.6169V100.364C73.6974 100.585 73.2271 100.735 72.7954 100.812C72.3638 100.895 71.8879 100.937 71.3677 100.937ZM71.127 92.3039C70.2581 92.3039 69.5609 92.5917 69.0352 93.1672C68.5094 93.7372 68.2023 94.5617 68.1138 95.6408H73.6919C73.6919 94.5949 73.465 93.7787 73.0112 93.1921C72.5575 92.6 71.9294 92.3039 71.127 92.3039ZM82.6484 98.4216C82.6484 99.2296 82.3413 99.8521 81.7271 100.289C81.1128 100.721 80.2412 100.937 79.1123 100.937C77.9059 100.937 76.9486 100.751 76.2402 100.381V99.4924C77.1478 99.9462 78.1051 100.173 79.1123 100.173C80.0033 100.173 80.6784 100.026 81.1377 99.7331C81.6025 99.4343 81.835 99.0386 81.835 98.5461C81.835 98.0923 81.6496 97.7105 81.2788 97.4006C80.9136 97.0907 80.3104 96.7864 79.4692 96.4875C78.5672 96.161 77.9336 95.8816 77.5684 95.6491C77.2031 95.4112 76.9264 95.1456 76.7383 94.8523C76.5557 94.5534 76.4644 94.191 76.4644 93.7649C76.4644 93.0897 76.7466 92.5557 77.311 92.1628C77.881 91.7699 78.6751 91.5735 79.6934 91.5735C80.6673 91.5735 81.5915 91.7561 82.4658 92.1213L82.1587 92.8684C81.2733 92.5032 80.4515 92.3205 79.6934 92.3205C78.9574 92.3205 78.3735 92.4423 77.9419 92.6858C77.5103 92.9293 77.2944 93.2668 77.2944 93.6985C77.2944 94.1688 77.4604 94.5451 77.7925 94.8274C78.13 95.1096 78.7858 95.425 79.7598 95.7737C80.5732 96.067 81.1654 96.3326 81.5361 96.5705C81.9069 96.803 82.1836 97.0686 82.3662 97.3674C82.5544 97.6662 82.6484 98.0176 82.6484 98.4216Z" fill="black"/>
<path d="M40.6097 130.603L40.4022 129.175H40.3358C39.882 129.757 39.4144 130.169 38.9329 130.412C38.457 130.65 37.8926 130.769 37.2396 130.769C36.3541 130.769 35.6652 130.542 35.1727 130.089C34.6802 129.635 34.4339 129.007 34.4339 128.204C34.4339 127.324 34.7991 126.641 35.5296 126.154C36.2656 125.667 37.3281 125.41 38.7171 125.382L40.4354 125.332V124.735C40.4354 123.877 40.261 123.229 39.9124 122.792C39.5638 122.355 39.0021 122.136 38.2274 122.136C37.3917 122.136 36.5257 122.369 35.6292 122.834L35.3221 122.12C36.3126 121.655 37.2921 121.423 38.2606 121.423C39.2511 121.423 39.9899 121.68 40.4769 122.195C40.9694 122.709 41.2156 123.512 41.2156 124.602V130.603H40.6097ZM37.2894 130.022C38.2523 130.022 39.0104 129.748 39.5638 129.2C40.1227 128.647 40.4022 127.881 40.4022 126.901V126.013L38.825 126.079C37.5578 126.14 36.653 126.339 36.1107 126.677C35.5739 127.009 35.3055 127.529 35.3055 128.238C35.3055 128.802 35.477 129.242 35.8201 129.557C36.1688 129.867 36.6585 130.022 37.2894 130.022ZM48.0057 130.769C46.6167 130.769 45.604 130.249 44.9676 129.209H44.9095L44.9344 129.906C44.9565 130.315 44.9676 130.764 44.9676 131.251V134.687H44.1458V121.58H44.8431L45.0008 122.867H45.0506C45.6704 121.893 46.6609 121.406 48.0223 121.406C49.2397 121.406 50.1666 121.807 50.803 122.61C51.445 123.406 51.7659 124.569 51.7659 126.096C51.7659 127.579 51.4284 128.73 50.7532 129.549C50.0836 130.363 49.1678 130.769 48.0057 130.769ZM47.9891 130.039C48.9132 130.039 49.6271 129.696 50.1307 129.009C50.6398 128.323 50.8943 127.363 50.8943 126.129C50.8943 123.478 49.937 122.153 48.0223 122.153C46.9708 122.153 46.1989 122.444 45.7064 123.025C45.2138 123.6 44.9676 124.541 44.9676 125.847V126.113C44.9676 127.524 45.2028 128.531 45.6732 129.134C46.1491 129.737 46.921 130.039 47.9891 130.039ZM58.1326 130.769C56.7436 130.769 55.7309 130.249 55.0945 129.209H55.0364L55.0613 129.906C55.0835 130.315 55.0945 130.764 55.0945 131.251V134.687H54.2728V121.58H54.97L55.1277 122.867H55.1776C55.7973 121.893 56.7879 121.406 58.1492 121.406C59.3667 121.406 60.2936 121.807 60.93 122.61C61.5719 123.406 61.8929 124.569 61.8929 126.096C61.8929 127.579 61.5553 128.73 60.8802 129.549C60.2106 130.363 59.2947 130.769 58.1326 130.769ZM58.116 130.039C59.0402 130.039 59.754 129.696 60.2576 129.009C60.7667 128.323 61.0213 127.363 61.0213 126.129C61.0213 123.478 60.0639 122.153 58.1492 122.153C57.0978 122.153 56.3258 122.444 55.8333 123.025C55.3408 123.6 55.0945 124.541 55.0945 125.847V126.113C55.0945 127.524 55.3297 128.531 55.8001 129.134C56.276 129.737 57.048 130.039 58.116 130.039ZM64.2337 129.956C64.2337 129.413 64.4551 129.142 64.8978 129.142C65.3515 129.142 65.5784 129.413 65.5784 129.956C65.5784 130.498 65.3515 130.769 64.8978 130.769C64.4551 130.769 64.2337 130.498 64.2337 129.956ZM67.2469 134.687C66.8042 134.687 66.4306 134.618 66.1263 134.48V133.766C66.5081 133.877 66.8651 133.932 67.1971 133.932C68.0327 133.932 68.4505 133.445 68.4505 132.471V121.58H69.2723V132.355C69.2723 133.102 69.0952 133.677 68.741 134.081C68.3924 134.485 67.8943 134.687 67.2469 134.687ZM68.3343 119.073C68.3343 118.542 68.5086 118.277 68.8572 118.277C69.0288 118.277 69.1616 118.346 69.2557 118.484C69.3553 118.622 69.4051 118.819 69.4051 119.073C69.4051 119.322 69.3553 119.519 69.2557 119.663C69.1616 119.807 69.0288 119.879 68.8572 119.879C68.5086 119.879 68.3343 119.61 68.3343 119.073ZM77.8968 128.254C77.8968 129.062 77.5897 129.685 76.9754 130.122C76.3611 130.553 75.4896 130.769 74.3607 130.769C73.1543 130.769 72.1969 130.584 71.4886 130.213V129.325C72.3961 129.779 73.3535 130.006 74.3607 130.006C75.2516 130.006 75.9267 129.859 76.386 129.566C76.8509 129.267 77.0833 128.871 77.0833 128.379C77.0833 127.925 76.8979 127.543 76.5272 127.233C76.1619 126.923 75.5587 126.619 74.7176 126.32C73.8156 125.994 73.1819 125.714 72.8167 125.482C72.4515 125.244 72.1748 124.978 71.9866 124.685C71.804 124.386 71.7127 124.023 71.7127 123.597C71.7127 122.922 71.9949 122.388 72.5594 121.995C73.1294 121.602 73.9235 121.406 74.9417 121.406C75.9157 121.406 76.8398 121.589 77.7142 121.954L77.407 122.701C76.5216 122.336 75.6998 122.153 74.9417 122.153C74.2057 122.153 73.6219 122.275 73.1902 122.518C72.7586 122.762 72.5428 123.099 72.5428 123.531C72.5428 124.001 72.7088 124.378 73.0408 124.66C73.3784 124.942 74.0342 125.258 75.0081 125.606C75.8216 125.899 76.4137 126.165 76.7845 126.403C77.1553 126.635 77.4319 126.901 77.6146 127.2C77.8027 127.499 77.8968 127.85 77.8968 128.254Z" fill="black"/>
</svg>
